<mxfile host="app.diagrams.net" modified="2024-04-29T17:59:07.898Z" agent="Mozilla/5.0 (X11; Linux x86_64) AppleWebKit/537.36 (KHTML, like Gecko) Chrome/124.0.0.0 Safari/537.36" etag="Aw1bNppRxsu_0qKlyUkr" version="24.3.1" type="device">
  <diagram id="C5RBs43oDa-KdzZeNtuy" name="Page-1">
    <mxGraphModel dx="1746" dy="1564" grid="1" gridSize="10" guides="1" tooltips="1" connect="1" arrows="1" fold="1" page="1" pageScale="1" pageWidth="827" pageHeight="1169" math="0" shadow="0">
      <root>
        <mxCell id="WIyWlLk6GJQsqaUBKTNV-0" />
        <mxCell id="WIyWlLk6GJQsqaUBKTNV-1" parent="WIyWlLk6GJQsqaUBKTNV-0" />
        <mxCell id="bn8bUxJnFZRLaV-LhEcT-4" value="" style="edgeStyle=orthogonalEdgeStyle;rounded=0;orthogonalLoop=1;jettySize=auto;html=1;entryX=0.5;entryY=0;entryDx=0;entryDy=0;" parent="WIyWlLk6GJQsqaUBKTNV-1" source="bn8bUxJnFZRLaV-LhEcT-0" target="bn8bUxJnFZRLaV-LhEcT-9" edge="1">
          <mxGeometry relative="1" as="geometry" />
        </mxCell>
        <mxCell id="bn8bUxJnFZRLaV-LhEcT-0" value="start" style="ellipse;whiteSpace=wrap;html=1;" parent="WIyWlLk6GJQsqaUBKTNV-1" vertex="1">
          <mxGeometry x="72" y="60" width="106" height="60" as="geometry" />
        </mxCell>
        <mxCell id="bn8bUxJnFZRLaV-LhEcT-1" value="Блок-схема основного алгоритма" style="text;html=1;align=center;verticalAlign=middle;resizable=0;points=[];autosize=1;strokeColor=none;fillColor=none;" parent="WIyWlLk6GJQsqaUBKTNV-1" vertex="1">
          <mxGeometry x="20" width="210" height="30" as="geometry" />
        </mxCell>
        <mxCell id="bn8bUxJnFZRLaV-LhEcT-6" value="" style="edgeStyle=orthogonalEdgeStyle;rounded=0;orthogonalLoop=1;jettySize=auto;html=1;" parent="WIyWlLk6GJQsqaUBKTNV-1" source="bn8bUxJnFZRLaV-LhEcT-3" target="bn8bUxJnFZRLaV-LhEcT-5" edge="1">
          <mxGeometry relative="1" as="geometry" />
        </mxCell>
        <mxCell id="bn8bUxJnFZRLaV-LhEcT-3" value="&lt;div&gt;string[] resArr=[]&lt;/div&gt;&lt;div&gt;int j=0&lt;/div&gt;" style="rounded=0;whiteSpace=wrap;html=1;" parent="WIyWlLk6GJQsqaUBKTNV-1" vertex="1">
          <mxGeometry x="0.6299999999999955" y="300" width="248.75" height="80" as="geometry" />
        </mxCell>
        <mxCell id="bn8bUxJnFZRLaV-LhEcT-8" value="" style="edgeStyle=orthogonalEdgeStyle;rounded=0;orthogonalLoop=1;jettySize=auto;html=1;" parent="WIyWlLk6GJQsqaUBKTNV-1" source="bn8bUxJnFZRLaV-LhEcT-5" target="bn8bUxJnFZRLaV-LhEcT-7" edge="1">
          <mxGeometry relative="1" as="geometry" />
        </mxCell>
        <mxCell id="OVSVfhZwAXBsYx2iZX1_-12" style="edgeStyle=orthogonalEdgeStyle;rounded=0;orthogonalLoop=1;jettySize=auto;html=1;" parent="WIyWlLk6GJQsqaUBKTNV-1" source="bn8bUxJnFZRLaV-LhEcT-5" target="OVSVfhZwAXBsYx2iZX1_-13" edge="1">
          <mxGeometry relative="1" as="geometry">
            <mxPoint x="380" y="520" as="targetPoint" />
            <Array as="points">
              <mxPoint x="290" y="450" />
              <mxPoint x="290" y="810" />
            </Array>
          </mxGeometry>
        </mxCell>
        <mxCell id="bn8bUxJnFZRLaV-LhEcT-5" value="i=0; inputArr.length-1; 1" style="shape=hexagon;perimeter=hexagonPerimeter2;whiteSpace=wrap;html=1;fixedSize=1;" parent="WIyWlLk6GJQsqaUBKTNV-1" vertex="1">
          <mxGeometry x="20.75999999999999" y="420" width="208.5" height="60" as="geometry" />
        </mxCell>
        <mxCell id="OVSVfhZwAXBsYx2iZX1_-6" value="" style="edgeStyle=orthogonalEdgeStyle;rounded=0;orthogonalLoop=1;jettySize=auto;html=1;" parent="WIyWlLk6GJQsqaUBKTNV-1" source="bn8bUxJnFZRLaV-LhEcT-7" target="OVSVfhZwAXBsYx2iZX1_-5" edge="1">
          <mxGeometry relative="1" as="geometry" />
        </mxCell>
        <mxCell id="OVSVfhZwAXBsYx2iZX1_-11" style="edgeStyle=orthogonalEdgeStyle;rounded=0;orthogonalLoop=1;jettySize=auto;html=1;" parent="WIyWlLk6GJQsqaUBKTNV-1" source="bn8bUxJnFZRLaV-LhEcT-7" edge="1">
          <mxGeometry relative="1" as="geometry">
            <mxPoint x="-90" y="560" as="targetPoint" />
          </mxGeometry>
        </mxCell>
        <mxCell id="bn8bUxJnFZRLaV-LhEcT-7" value="&lt;font style=&quot;font-size: 12px;&quot;&gt;inputArr[i].length&amp;lt;=3&lt;/font&gt;" style="rhombus;whiteSpace=wrap;html=1;" parent="WIyWlLk6GJQsqaUBKTNV-1" vertex="1">
          <mxGeometry x="-5" y="520" width="260" height="80" as="geometry" />
        </mxCell>
        <mxCell id="bn8bUxJnFZRLaV-LhEcT-10" value="" style="edgeStyle=orthogonalEdgeStyle;rounded=0;orthogonalLoop=1;jettySize=auto;html=1;" parent="WIyWlLk6GJQsqaUBKTNV-1" source="bn8bUxJnFZRLaV-LhEcT-9" target="bn8bUxJnFZRLaV-LhEcT-3" edge="1">
          <mxGeometry relative="1" as="geometry" />
        </mxCell>
        <mxCell id="bn8bUxJnFZRLaV-LhEcT-9" value="string[] inputArr" style="shape=parallelogram;perimeter=parallelogramPerimeter;whiteSpace=wrap;html=1;fixedSize=1;" parent="WIyWlLk6GJQsqaUBKTNV-1" vertex="1">
          <mxGeometry x="30" y="170" width="190" height="60" as="geometry" />
        </mxCell>
        <mxCell id="OVSVfhZwAXBsYx2iZX1_-4" value="No" style="text;html=1;align=center;verticalAlign=middle;resizable=0;points=[];autosize=1;strokeColor=none;fillColor=none;" parent="WIyWlLk6GJQsqaUBKTNV-1" vertex="1">
          <mxGeometry x="-70" y="520" width="40" height="30" as="geometry" />
        </mxCell>
        <mxCell id="OVSVfhZwAXBsYx2iZX1_-10" style="edgeStyle=orthogonalEdgeStyle;rounded=0;orthogonalLoop=1;jettySize=auto;html=1;exitX=0;exitY=0.5;exitDx=0;exitDy=0;entryX=0;entryY=0.5;entryDx=0;entryDy=0;" parent="WIyWlLk6GJQsqaUBKTNV-1" source="OVSVfhZwAXBsYx2iZX1_-5" target="bn8bUxJnFZRLaV-LhEcT-5" edge="1">
          <mxGeometry relative="1" as="geometry">
            <mxPoint x="-80" y="440" as="targetPoint" />
            <Array as="points">
              <mxPoint x="-90" y="690" />
              <mxPoint x="-90" y="450" />
            </Array>
          </mxGeometry>
        </mxCell>
        <mxCell id="OVSVfhZwAXBsYx2iZX1_-5" value="resArr[j]=inputArr[i]" style="rounded=0;whiteSpace=wrap;html=1;" parent="WIyWlLk6GJQsqaUBKTNV-1" vertex="1">
          <mxGeometry x="0.6299999999999955" y="650" width="248.75" height="80" as="geometry" />
        </mxCell>
        <mxCell id="OVSVfhZwAXBsYx2iZX1_-7" value="Yes" style="text;html=1;align=center;verticalAlign=middle;resizable=0;points=[];autosize=1;strokeColor=none;fillColor=none;" parent="WIyWlLk6GJQsqaUBKTNV-1" vertex="1">
          <mxGeometry x="130" y="610" width="40" height="30" as="geometry" />
        </mxCell>
        <mxCell id="OVSVfhZwAXBsYx2iZX1_-15" value="" style="edgeStyle=orthogonalEdgeStyle;rounded=0;orthogonalLoop=1;jettySize=auto;html=1;" parent="WIyWlLk6GJQsqaUBKTNV-1" target="OVSVfhZwAXBsYx2iZX1_-14" edge="1">
          <mxGeometry relative="1" as="geometry">
            <mxPoint x="140" y="830" as="sourcePoint" />
            <Array as="points">
              <mxPoint x="140" y="842" />
            </Array>
          </mxGeometry>
        </mxCell>
        <mxCell id="OVSVfhZwAXBsYx2iZX1_-13" value="return resRes" style="shape=document;whiteSpace=wrap;html=1;boundedLbl=1;" parent="WIyWlLk6GJQsqaUBKTNV-1" vertex="1">
          <mxGeometry x="80" y="770" width="120" height="80" as="geometry" />
        </mxCell>
        <mxCell id="OVSVfhZwAXBsYx2iZX1_-14" value="end" style="ellipse;whiteSpace=wrap;html=1;" parent="WIyWlLk6GJQsqaUBKTNV-1" vertex="1">
          <mxGeometry x="87.5" y="875" width="105" height="60" as="geometry" />
        </mxCell>
        <mxCell id="OVSVfhZwAXBsYx2iZX1_-16" value="Блок-схема функции ввода строкового массива" style="text;html=1;align=center;verticalAlign=middle;resizable=0;points=[];autosize=1;strokeColor=none;fillColor=none;" parent="WIyWlLk6GJQsqaUBKTNV-1" vertex="1">
          <mxGeometry x="-456" y="-2" width="290" height="30" as="geometry" />
        </mxCell>
        <mxCell id="OVSVfhZwAXBsYx2iZX1_-19" value="" style="edgeStyle=orthogonalEdgeStyle;rounded=0;orthogonalLoop=1;jettySize=auto;html=1;" parent="WIyWlLk6GJQsqaUBKTNV-1" source="OVSVfhZwAXBsYx2iZX1_-17" target="OVSVfhZwAXBsYx2iZX1_-18" edge="1">
          <mxGeometry relative="1" as="geometry" />
        </mxCell>
        <mxCell id="OVSVfhZwAXBsYx2iZX1_-17" value="start" style="ellipse;whiteSpace=wrap;html=1;" parent="WIyWlLk6GJQsqaUBKTNV-1" vertex="1">
          <mxGeometry x="-364" y="60" width="106" height="60" as="geometry" />
        </mxCell>
        <mxCell id="H2Zk2DF8ovm69yexZ2gm-1" value="" style="edgeStyle=orthogonalEdgeStyle;rounded=0;orthogonalLoop=1;jettySize=auto;html=1;" edge="1" parent="WIyWlLk6GJQsqaUBKTNV-1" source="OVSVfhZwAXBsYx2iZX1_-18" target="H2Zk2DF8ovm69yexZ2gm-0">
          <mxGeometry relative="1" as="geometry" />
        </mxCell>
        <mxCell id="OVSVfhZwAXBsYx2iZX1_-18" value="Введите длину массива&lt;div&gt;int length&lt;/div&gt;" style="shape=parallelogram;perimeter=parallelogramPerimeter;whiteSpace=wrap;html=1;fixedSize=1;" parent="WIyWlLk6GJQsqaUBKTNV-1" vertex="1">
          <mxGeometry x="-371" y="150" width="120" height="60" as="geometry" />
        </mxCell>
        <mxCell id="H2Zk2DF8ovm69yexZ2gm-3" value="" style="edgeStyle=orthogonalEdgeStyle;rounded=0;orthogonalLoop=1;jettySize=auto;html=1;" edge="1" parent="WIyWlLk6GJQsqaUBKTNV-1" source="H2Zk2DF8ovm69yexZ2gm-0" target="H2Zk2DF8ovm69yexZ2gm-2">
          <mxGeometry relative="1" as="geometry" />
        </mxCell>
        <mxCell id="H2Zk2DF8ovm69yexZ2gm-0" value="string[] inputArr[length]" style="rounded=0;whiteSpace=wrap;html=1;" vertex="1" parent="WIyWlLk6GJQsqaUBKTNV-1">
          <mxGeometry x="-435.37" y="260" width="248.75" height="80" as="geometry" />
        </mxCell>
        <mxCell id="H2Zk2DF8ovm69yexZ2gm-5" value="" style="edgeStyle=orthogonalEdgeStyle;rounded=0;orthogonalLoop=1;jettySize=auto;html=1;" edge="1" parent="WIyWlLk6GJQsqaUBKTNV-1" source="H2Zk2DF8ovm69yexZ2gm-2" target="H2Zk2DF8ovm69yexZ2gm-4">
          <mxGeometry relative="1" as="geometry" />
        </mxCell>
        <mxCell id="H2Zk2DF8ovm69yexZ2gm-2" value="i=0; inputArr.length-1; 1" style="shape=hexagon;perimeter=hexagonPerimeter2;whiteSpace=wrap;html=1;fixedSize=1;" vertex="1" parent="WIyWlLk6GJQsqaUBKTNV-1">
          <mxGeometry x="-415.25" y="380" width="208.5" height="60" as="geometry" />
        </mxCell>
        <mxCell id="H2Zk2DF8ovm69yexZ2gm-4" value="Введите элемент с номером i&lt;div&gt;&lt;span style=&quot;background-color: initial;&quot;&gt;string inputArr[i]&lt;/span&gt;&lt;/div&gt;" style="shape=parallelogram;perimeter=parallelogramPerimeter;whiteSpace=wrap;html=1;fixedSize=1;" vertex="1" parent="WIyWlLk6GJQsqaUBKTNV-1">
          <mxGeometry x="-420" y="480" width="220" height="70" as="geometry" />
        </mxCell>
        <mxCell id="H2Zk2DF8ovm69yexZ2gm-6" value="" style="endArrow=classic;html=1;rounded=0;exitX=0;exitY=0.5;exitDx=0;exitDy=0;entryX=0;entryY=0.5;entryDx=0;entryDy=0;" edge="1" parent="WIyWlLk6GJQsqaUBKTNV-1" source="H2Zk2DF8ovm69yexZ2gm-4" target="H2Zk2DF8ovm69yexZ2gm-2">
          <mxGeometry width="50" height="50" relative="1" as="geometry">
            <mxPoint x="-360" y="570" as="sourcePoint" />
            <mxPoint x="-310" y="520" as="targetPoint" />
            <Array as="points">
              <mxPoint x="-480" y="515" />
              <mxPoint x="-480" y="410" />
            </Array>
          </mxGeometry>
        </mxCell>
        <mxCell id="H2Zk2DF8ovm69yexZ2gm-10" value="" style="edgeStyle=orthogonalEdgeStyle;rounded=0;orthogonalLoop=1;jettySize=auto;html=1;exitX=0.508;exitY=0.75;exitDx=0;exitDy=0;exitPerimeter=0;" edge="1" parent="WIyWlLk6GJQsqaUBKTNV-1" source="H2Zk2DF8ovm69yexZ2gm-7" target="H2Zk2DF8ovm69yexZ2gm-9">
          <mxGeometry relative="1" as="geometry" />
        </mxCell>
        <mxCell id="H2Zk2DF8ovm69yexZ2gm-7" value="return inputArr" style="shape=document;whiteSpace=wrap;html=1;boundedLbl=1;" vertex="1" parent="WIyWlLk6GJQsqaUBKTNV-1">
          <mxGeometry x="-371" y="590" width="120" height="80" as="geometry" />
        </mxCell>
        <mxCell id="H2Zk2DF8ovm69yexZ2gm-8" value="" style="endArrow=classic;html=1;rounded=0;exitX=1;exitY=0.5;exitDx=0;exitDy=0;entryX=1;entryY=0.5;entryDx=0;entryDy=0;" edge="1" parent="WIyWlLk6GJQsqaUBKTNV-1" source="H2Zk2DF8ovm69yexZ2gm-2" target="H2Zk2DF8ovm69yexZ2gm-7">
          <mxGeometry width="50" height="50" relative="1" as="geometry">
            <mxPoint x="-360" y="490" as="sourcePoint" />
            <mxPoint x="-210" y="620" as="targetPoint" />
            <Array as="points">
              <mxPoint x="-180" y="410" />
              <mxPoint x="-180" y="630" />
            </Array>
          </mxGeometry>
        </mxCell>
        <mxCell id="H2Zk2DF8ovm69yexZ2gm-9" value="end" style="ellipse;whiteSpace=wrap;html=1;" vertex="1" parent="WIyWlLk6GJQsqaUBKTNV-1">
          <mxGeometry x="-362.5" y="710" width="105" height="60" as="geometry" />
        </mxCell>
        <mxCell id="H2Zk2DF8ovm69yexZ2gm-11" value="Блок-схема функци печати одномерного массива" style="text;html=1;align=center;verticalAlign=middle;resizable=0;points=[];autosize=1;strokeColor=none;fillColor=none;" vertex="1" parent="WIyWlLk6GJQsqaUBKTNV-1">
          <mxGeometry x="310" y="-2" width="300" height="30" as="geometry" />
        </mxCell>
        <mxCell id="H2Zk2DF8ovm69yexZ2gm-14" value="" style="edgeStyle=orthogonalEdgeStyle;rounded=0;orthogonalLoop=1;jettySize=auto;html=1;" edge="1" parent="WIyWlLk6GJQsqaUBKTNV-1" source="H2Zk2DF8ovm69yexZ2gm-12" target="H2Zk2DF8ovm69yexZ2gm-13">
          <mxGeometry relative="1" as="geometry" />
        </mxCell>
        <mxCell id="H2Zk2DF8ovm69yexZ2gm-12" value="start" style="ellipse;whiteSpace=wrap;html=1;" vertex="1" parent="WIyWlLk6GJQsqaUBKTNV-1">
          <mxGeometry x="407" y="60" width="106" height="60" as="geometry" />
        </mxCell>
        <mxCell id="H2Zk2DF8ovm69yexZ2gm-16" value="" style="edgeStyle=orthogonalEdgeStyle;rounded=0;orthogonalLoop=1;jettySize=auto;html=1;" edge="1" parent="WIyWlLk6GJQsqaUBKTNV-1" source="H2Zk2DF8ovm69yexZ2gm-13" target="H2Zk2DF8ovm69yexZ2gm-15">
          <mxGeometry relative="1" as="geometry" />
        </mxCell>
        <mxCell id="H2Zk2DF8ovm69yexZ2gm-13" value="string[] array" style="shape=parallelogram;perimeter=parallelogramPerimeter;whiteSpace=wrap;html=1;fixedSize=1;" vertex="1" parent="WIyWlLk6GJQsqaUBKTNV-1">
          <mxGeometry x="370" y="160" width="180" height="60" as="geometry" />
        </mxCell>
        <mxCell id="H2Zk2DF8ovm69yexZ2gm-18" value="" style="edgeStyle=orthogonalEdgeStyle;rounded=0;orthogonalLoop=1;jettySize=auto;html=1;" edge="1" parent="WIyWlLk6GJQsqaUBKTNV-1" source="H2Zk2DF8ovm69yexZ2gm-15" target="H2Zk2DF8ovm69yexZ2gm-17">
          <mxGeometry relative="1" as="geometry" />
        </mxCell>
        <mxCell id="H2Zk2DF8ovm69yexZ2gm-21" style="edgeStyle=orthogonalEdgeStyle;rounded=0;orthogonalLoop=1;jettySize=auto;html=1;entryX=1;entryY=0.5;entryDx=0;entryDy=0;" edge="1" parent="WIyWlLk6GJQsqaUBKTNV-1" source="H2Zk2DF8ovm69yexZ2gm-15" target="H2Zk2DF8ovm69yexZ2gm-22">
          <mxGeometry relative="1" as="geometry">
            <mxPoint x="519.9999999999945" y="510" as="targetPoint" />
            <Array as="points">
              <mxPoint x="580" y="290" />
              <mxPoint x="580" y="495" />
            </Array>
          </mxGeometry>
        </mxCell>
        <mxCell id="H2Zk2DF8ovm69yexZ2gm-15" value="i=0; array.length-1; 1" style="shape=hexagon;perimeter=hexagonPerimeter2;whiteSpace=wrap;html=1;fixedSize=1;" vertex="1" parent="WIyWlLk6GJQsqaUBKTNV-1">
          <mxGeometry x="355.75" y="260" width="208.5" height="60" as="geometry" />
        </mxCell>
        <mxCell id="H2Zk2DF8ovm69yexZ2gm-17" value="print array[i]" style="shape=document;whiteSpace=wrap;html=1;boundedLbl=1;" vertex="1" parent="WIyWlLk6GJQsqaUBKTNV-1">
          <mxGeometry x="400" y="360" width="120" height="80" as="geometry" />
        </mxCell>
        <mxCell id="H2Zk2DF8ovm69yexZ2gm-19" value="" style="endArrow=classic;html=1;rounded=0;entryX=0;entryY=0.5;entryDx=0;entryDy=0;exitX=0;exitY=0.5;exitDx=0;exitDy=0;" edge="1" parent="WIyWlLk6GJQsqaUBKTNV-1" source="H2Zk2DF8ovm69yexZ2gm-17" target="H2Zk2DF8ovm69yexZ2gm-15">
          <mxGeometry width="50" height="50" relative="1" as="geometry">
            <mxPoint x="320" y="350" as="sourcePoint" />
            <mxPoint x="370" y="300" as="targetPoint" />
            <Array as="points">
              <mxPoint x="340" y="400" />
              <mxPoint x="340" y="290" />
            </Array>
          </mxGeometry>
        </mxCell>
        <mxCell id="H2Zk2DF8ovm69yexZ2gm-22" value="end" style="ellipse;whiteSpace=wrap;html=1;" vertex="1" parent="WIyWlLk6GJQsqaUBKTNV-1">
          <mxGeometry x="410" y="465" width="105" height="60" as="geometry" />
        </mxCell>
      </root>
    </mxGraphModel>
  </diagram>
</mxfile>
